<?xml version="1.0" standalone="no"?>
<!DOCTYPE svg PUBLIC "-//W3C//DTD SVG 20010904//EN"
 "http://www.w3.org/TR/2001/REC-SVG-20010904/DTD/svg10.dtd">
<svg version="1.0" xmlns="http://www.w3.org/2000/svg"
 width="1899.000000pt" height="899.000000pt" viewBox="0 0 1899.000000 899.000000"
 preserveAspectRatio="xMidYMid meet">

<g transform="translate(0.000000,899.000000) scale(0.100000,-0.100000)"
fill="#000000" stroke="none">
<path d="M3800 8405 l0 -405 30 0 c30 0 30 -1 30 -55 l0 -55 435 0 435 0 -2
428 -3 427 -52 3 c-51 3 -53 4 -53 33 l0 29 -410 0 -410 0 0 -405z m880 -90
l0 -385 -387 2 -388 3 0 30 0 30 358 3 357 2 0 350 0 350 30 0 30 0 0 -385z
m-322 225 c6 0 12 -8 12 -18 0 -15 -8 -19 -42 -18 -36 1 -43 -2 -46 -19 -2
-16 8 -25 47 -42 38 -16 52 -28 57 -48 9 -35 -10 -73 -42 -85 -38 -15 -100
-12 -114 5 -19 22 -2 36 35 29 82 -15 105 33 30 62 -49 18 -65 38 -65 77 0 39
48 70 95 61 11 -2 26 -4 33 -4z m-188 -85 c0 -118 -20 -155 -85 -155 -36 0
-55 10 -55 30 0 16 6 18 33 13 48 -7 59 11 55 94 l-3 68 -42 3 c-29 2 -43 8
-43 18 0 11 16 14 70 14 l70 0 0 -85z"/>
<path d="M5190 8225 c0 -83 0 -85 27 -91 43 -11 77 14 81 60 4 47 -13 69 -50
64 -25 -4 -28 -2 -28 24 0 18 -5 28 -15 28 -12 0 -15 -16 -15 -85z m78 -18 c4
-21 -15 -47 -34 -47 -15 0 -20 51 -7 64 12 12 38 1 41 -17z"/>
<path d="M4790 8285 c0 -9 10 -15 26 -15 24 0 25 -2 22 -52 -3 -51 -4 -53 -30
-51 -30 2 -35 -6 -16 -25 18 -18 45 -15 68 8 16 16 20 33 20 85 l0 65 -45 0
c-33 0 -45 -4 -45 -15z"/>
<path d="M4927 8242 c-26 -29 -22 -78 9 -98 53 -35 111 20 88 84 -7 22 -16 28
-45 30 -24 2 -40 -3 -52 -16z m70 -28 c7 -18 -6 -45 -25 -52 -15 -5 -33 33
-26 52 8 21 43 21 51 0z"/>
<path d="M5060 8246 c0 -9 10 -13 28 -12 37 2 43 -18 8 -24 -37 -6 -55 -33
-40 -57 8 -13 24 -18 55 -17 l44 1 3 47 c2 26 -2 54 -9 62 -15 19 -89 19 -89
0z m58 -68 c-6 -18 -28 -21 -28 -4 0 9 7 16 16 16 9 0 14 -5 12 -12z"/>
<path d="M5343 8253 c-7 -2 -13 -16 -13 -29 0 -19 8 -28 30 -35 39 -14 38 -29
-1 -29 -38 0 -35 -24 4 -28 64 -8 90 49 35 76 -35 16 -36 32 -3 32 14 0 25 5
25 10 0 10 -55 13 -77 3z"/>
<path d="M5466 8238 c-22 -31 -20 -64 4 -88 41 -41 100 -12 100 49 0 46 -14
61 -56 61 -23 0 -38 -7 -48 -22z m72 -47 c-4 -38 -42 -36 -46 3 -2 16 2 32 9
37 20 12 40 -11 37 -40z"/>
<path d="M5600 8193 c0 -76 22 -85 30 -12 4 31 10 45 22 47 14 3 17 -6 20 -44
2 -28 8 -49 16 -52 10 -3 12 11 10 59 l-3 64 -47 2 -48 2 0 -66z"/>
<path d="M4808 8079 c-31 -18 -22 -57 17 -81 44 -25 40 -44 -9 -40 -26 2 -36
-1 -36 -11 0 -29 62 -36 98 -11 36 25 29 60 -18 84 -45 23 -45 40 1 40 20 0
29 4 27 13 -6 16 -58 20 -80 6z"/>
<path d="M5223 8070 c-3 -11 -12 -20 -19 -20 -8 0 -14 -7 -14 -15 0 -8 7 -15
15 -15 10 0 15 -10 15 -34 0 -40 24 -68 53 -64 28 4 34 28 8 28 -17 0 -21 6
-21 35 0 28 4 35 20 35 11 0 20 7 20 15 0 8 -8 15 -19 15 -10 0 -21 9 -24 20
-3 11 -10 20 -17 20 -7 0 -14 -9 -17 -20z"/>
<path d="M4937 8044 c-15 -16 -6 -24 24 -22 19 2 34 -2 36 -9 3 -9 -6 -13 -26
-13 -33 0 -55 -27 -45 -54 7 -18 28 -25 69 -21 30 2 30 2 30 61 l0 59 -40 3
c-23 2 -44 0 -48 -4z m63 -74 c0 -12 -28 -25 -36 -17 -9 9 6 27 22 27 8 0 14
-5 14 -10z"/>
<path d="M5062 7987 c2 -37 8 -62 16 -65 8 -2 12 8 12 31 0 45 9 67 26 67 8 0
14 -16 16 -47 2 -35 7 -48 18 -48 19 0 27 90 10 110 -7 9 -30 14 -56 13 l-45
-1 3 -60z"/>
<path d="M5347 8038 c-27 -22 -31 -61 -7 -91 27 -35 62 -35 89 -1 25 32 26 52
5 82 -17 25 -60 30 -87 10z m61 -50 c-3 -36 -24 -44 -41 -17 -14 23 -2 49 23
49 18 0 21 -5 18 -32z"/>
<path d="M5480 8035 c-17 -21 -5 -45 30 -58 40 -15 38 -27 -6 -27 -42 0 -43
-23 -1 -28 64 -8 95 56 37 77 -37 12 -41 35 -5 29 17 -4 25 -1 25 8 0 19 -64
18 -80 -1z"/>
<path d="M13594 7993 c-6 -43 -8 -46 -17 -25 -24 53 -97 30 -97 -32 l0 -31
-13 25 c-7 13 -24 30 -37 37 l-25 13 28 0 c21 0 28 4 25 16 -5 25 -31 38 -60
31 -31 -8 -41 -29 -28 -61 5 -15 5 -27 -2 -34 -16 -16 8 -42 41 -43 l26 -1
-25 -8 c-24 -8 -24 -8 6 -9 17 -1 37 6 44 14 10 12 15 12 37 -2 20 -13 31 -15
54 -6 24 9 35 8 59 -5 27 -16 30 -16 58 5 22 16 32 19 40 11 14 -14 45 53 36
76 -3 9 -1 16 5 16 6 0 11 4 11 9 0 5 -11 9 -25 9 -19 0 -25 -6 -25 -23 0 -35
-13 -38 -26 -5 -10 22 -20 30 -39 30 -18 0 -25 5 -25 20 0 39 -19 19 -26 -27z
m-154 7 c0 -5 -11 -10 -25 -10 -14 0 -25 5 -25 10 0 6 11 10 25 10 14 0 25 -4
25 -10z m110 -30 c0 -5 -9 -10 -20 -10 -11 0 -20 5 -20 10 0 6 9 10 20 10 11
0 20 -4 20 -10z m110 0 c0 -5 -7 -7 -15 -4 -8 4 -15 8 -15 10 0 2 7 4 15 4 8
0 15 -4 15 -10z m-110 -40 c0 -13 -7 -20 -20 -20 -13 0 -20 7 -20 20 0 13 7
20 20 20 13 0 20 -7 20 -20z m110 -5 c0 -8 -6 -15 -14 -15 -17 0 -28 14 -19
24 12 12 33 6 33 -9z m-245 -5 c3 -5 -1 -10 -9 -10 -9 0 -16 5 -16 10 0 6 4
10 9 10 6 0 13 -4 16 -10z m128 -37 c-7 -2 -19 -2 -25 0 -7 3 -2 5 12 5 14 0
19 -2 13 -5z"/>
<path d="M14440 8030 c0 -5 5 -10 10 -10 6 0 10 5 10 10 0 6 -4 10 -10 10 -5
0 -10 -4 -10 -10z"/>
<path d="M12580 7960 c0 -53 3 -70 14 -70 8 0 16 7 20 15 3 8 14 15 25 15 10
0 21 -7 25 -15 8 -21 36 -19 36 3 0 9 -3 41 -6 70 -7 56 -24 72 -24 22 0 -28
-3 -30 -35 -30 -32 0 -35 2 -35 30 0 17 -4 30 -10 30 -6 0 -10 -30 -10 -70z
m67 -16 c-3 -3 -12 -4 -19 -1 -8 3 -5 6 6 6 11 1 17 -2 13 -5z"/>
<path d="M14136 8008 c-9 -35 -7 -116 3 -122 5 -3 15 1 22 10 10 12 71 44 85
44 2 0 4 -11 4 -25 0 -16 6 -25 15 -25 9 0 15 9 15 24 0 14 4 27 10 31 5 3 7
12 3 20 -3 8 0 15 6 15 6 0 11 4 11 9 0 5 -11 9 -24 9 -16 0 -27 -8 -31 -22
-7 -20 -8 -20 -12 4 -6 33 -29 50 -69 50 -24 0 -33 -5 -38 -22z m74 -8 c0 -12
-8 -12 -35 0 -18 8 -17 9 8 9 15 1 27 -3 27 -9z m-5 -30 c-3 -5 -15 -10 -26
-10 -11 0 -17 5 -14 10 3 6 15 10 26 10 11 0 17 -4 14 -10z m-2 -37 c-7 -2
-19 -2 -25 0 -7 3 -2 5 12 5 14 0 19 -2 13 -5z"/>
<path d="M14600 8015 c0 -8 -4 -15 -8 -15 -9 0 2 -102 13 -120 4 -7 12 -5 22
6 11 10 13 18 6 22 -7 5 -8 22 -3 50 4 23 3 42 -1 42 -5 0 -9 7 -9 15 0 8 -4
15 -10 15 -5 0 -10 -7 -10 -15z"/>
<path d="M15136 8008 c-36 -51 -9 -139 42 -137 l27 1 -25 8 -25 7 29 4 c16 2
34 12 40 21 14 23 -1 36 -17 14 -21 -28 -52 -17 -52 19 0 25 4 30 25 32 14 0
31 1 38 2 19 2 14 29 -7 41 -31 16 -59 12 -75 -12z m64 -8 c0 -5 -12 -10 -26
-10 -14 0 -23 4 -19 10 3 6 15 10 26 10 10 0 19 -4 19 -10z"/>
<path d="M15478 8012 c-5 -16 -4 -39 1 -97 1 -11 5 -26 10 -34 8 -12 12 -12
25 2 11 11 13 18 5 23 -7 4 -9 24 -6 50 2 24 1 44 -4 44 -5 0 -9 7 -9 15 0 21
-17 19 -22 -3z"/>
<path d="M15660 8015 c0 -8 -4 -15 -8 -15 -9 0 2 -102 13 -120 4 -7 12 -5 22
6 11 10 13 18 6 22 -7 5 -8 22 -3 50 4 23 3 42 -1 42 -5 0 -9 7 -9 15 0 8 -4
15 -10 15 -5 0 -10 -7 -10 -15z"/>
<path d="M12730 7985 c-18 -21 -18 -78 -1 -99 19 -22 54 -20 76 4 16 18 20 19
28 5 11 -21 27 -9 27 21 0 33 34 29 38 -4 4 -30 20 -28 28 3 8 32 34 33 34 1
0 -27 15 -42 25 -26 4 7 14 5 28 -5 23 -16 52 -20 43 -6 -3 5 2 11 13 14 22 5
35 61 20 88 -17 32 -61 21 -78 -19 l-15 -33 -10 33 c-11 33 -12 33 -78 35
l-67 3 -7 -35 -6 -35 -17 32 c-18 38 -59 49 -81 23z m55 -15 c4 -6 -5 -10 -20
-10 -15 0 -24 4 -20 10 3 6 12 10 20 10 8 0 17 -4 20 -10z m108 3 c-7 -2 -19
-2 -25 0 -7 3 -2 5 12 5 14 0 19 -2 13 -5z m67 -3 c0 -5 -7 -10 -15 -10 -8 0
-15 5 -15 10 0 6 7 10 15 10 8 0 15 -4 15 -10z m110 0 c0 -5 -9 -10 -20 -10
-11 0 -20 5 -20 10 0 6 9 10 20 10 11 0 20 -4 20 -10z m-282 -37 c5 -17 -26
-29 -40 -15 -6 6 -7 15 -3 22 9 14 37 9 43 -7z m-11 -49 c-3 -3 -12 -4 -19 -1
-8 3 -5 6 6 6 11 1 17 -2 13 -5z"/>
<path d="M13787 7982 c-28 -31 -14 -112 18 -112 9 0 14 4 10 9 -3 5 5 11 17
13 22 3 28 18 29 72 0 37 -47 48 -74 18z m53 -12 c0 -5 -9 -10 -20 -10 -11 0
-20 5 -20 10 0 6 9 10 20 10 11 0 20 -4 20 -10z"/>
<path d="M14336 7984 c-20 -20 -20 -63 0 -92 18 -26 41 -28 73 -5 24 16 24 16
18 -7 -3 -13 0 -28 8 -37 12 -12 16 -8 25 28 11 40 12 41 26 20 14 -20 52 -31
39 -12 -3 5 5 11 17 13 13 2 23 10 23 18 0 8 4 21 9 28 11 18 -20 62 -43 62
-24 0 -51 -31 -51 -61 0 -19 -2 -21 -10 -9 -5 8 -10 27 -10 43 0 15 -4 27 -10
27 -5 0 -10 -11 -10 -24 0 -14 -4 -28 -10 -31 -5 -3 -10 1 -10 9 0 20 -28 46
-50 46 -10 0 -26 -7 -34 -16z m54 -14 c0 -5 -9 -10 -20 -10 -11 0 -20 5 -20
10 0 6 9 10 20 10 11 0 20 -4 20 -10z m160 0 c0 -5 -9 -10 -20 -10 -11 0 -20
5 -20 10 0 6 9 10 20 10 11 0 20 -4 20 -10z m-160 -40 c0 -13 -7 -20 -20 -20
-13 0 -20 7 -20 20 0 13 7 20 20 20 13 0 20 -7 20 -20z m-7 -47 c-7 -2 -19 -2
-25 0 -7 3 -2 5 12 5 14 0 19 -2 13 -5z"/>
<path d="M14667 7982 c-21 -23 -22 -76 -1 -96 35 -36 84 -7 84 49 0 58 -49 85
-83 47z m53 -12 c0 -5 -9 -10 -20 -10 -11 0 -20 5 -20 10 0 6 9 10 20 10 11 0
20 -4 20 -10z m0 -40 c0 -13 -7 -20 -20 -20 -13 0 -20 7 -20 20 0 13 7 20 20
20 13 0 20 -7 20 -20z m-7 -47 c-7 -2 -19 -2 -25 0 -7 3 -2 5 12 5 14 0 19 -2
13 -5z"/>
<path d="M14780 7985 c-6 -8 -10 -20 -7 -27 2 -7 0 -21 -4 -30 -7 -12 -3 -21
11 -31 11 -7 17 -17 12 -21 -4 -4 7 -6 23 -4 27 3 30 7 30 38 0 26 -6 37 -23
46 -37 18 -39 27 -4 21 33 -7 45 6 16 17 -25 10 -41 7 -54 -9z"/>
<path d="M15266 7987 c-22 -16 -25 -79 -5 -103 16 -20 56 -17 77 4 17 17 20
17 30 3 11 -17 11 -17 27 34 8 25 35 18 35 -10 0 -16 6 -25 15 -25 11 0 15 11
15 36 0 54 -15 74 -55 72 -31 -1 -35 -5 -41 -35 l-6 -33 -17 32 c-18 37 -46
46 -75 25z m54 -17 c0 -5 -9 -10 -20 -10 -11 0 -20 5 -20 10 0 6 9 10 20 10
11 0 20 -4 20 -10z m110 0 c0 -5 -7 -7 -15 -4 -8 4 -15 8 -15 10 0 2 7 4 15 4
8 0 15 -4 15 -10z m-115 -40 c0 -8 -8 -16 -17 -18 -13 -2 -18 3 -18 18 0 15 5
20 18 18 9 -2 17 -10 17 -18z m-8 -46 c-3 -3 -12 -4 -19 -1 -8 3 -5 6 6 6 11
1 17 -2 13 -5z"/>
<path d="M15550 7985 c-11 -13 -8 -14 19 -9 19 4 31 2 31 -4 0 -6 -12 -12 -27
-14 -25 -3 -28 -7 -28 -43 0 -34 4 -41 27 -49 38 -13 58 6 58 56 0 22 -5 48
-10 59 -13 23 -52 25 -70 4z"/>
<path d="M15727 7982 c-21 -23 -22 -76 -1 -96 35 -36 84 -7 84 49 0 58 -49 85
-83 47z m53 -12 c0 -5 -9 -10 -20 -10 -11 0 -20 5 -20 10 0 6 9 10 20 10 11 0
20 -4 20 -10z m0 -40 c0 -13 -7 -20 -20 -20 -13 0 -20 7 -20 20 0 13 7 20 20
20 13 0 20 -7 20 -20z m-7 -47 c-7 -2 -19 -2 -25 0 -7 3 -2 5 12 5 14 0 19 -2
13 -5z"/>
<path d="M15840 7985 c-6 -8 -10 -20 -7 -27 2 -7 0 -21 -4 -30 -7 -12 -3 -21
11 -31 11 -7 17 -17 12 -21 -4 -4 7 -6 23 -4 27 3 30 7 30 38 0 26 -6 37 -23
46 -37 18 -39 27 -4 21 33 -7 45 6 16 17 -25 10 -41 7 -54 -9z"/>
<path d="M0 3833 l0 -3833 9495 0 9495 0 0 3833 c-1 3236 -3 3826 -14 3794
-24 -66 -61 -111 -117 -142 l-54 -30 -9310 0 -9310 0 -54 30 c-56 31 -93 76
-117 142 -11 32 -13 -558 -14 -3794z m9490 1571 c7 -19 10 -36 8 -37 -1 -1
-13 -7 -25 -14 -15 -9 -23 -9 -25 -1 -2 6 -29 13 -59 16 -47 4 -64 0 -118 -28
-35 -17 -85 -53 -111 -79 -40 -40 -53 -62 -74 -130 -16 -49 -26 -105 -26 -140
0 -33 -7 -72 -16 -89 -8 -18 -13 -41 -9 -52 6 -19 2 -20 -140 -20 -87 0 -144
-4 -140 -9 3 -5 58 -8 123 -6 64 2 125 -1 135 -6 20 -11 23 -49 3 -49 -23 0
-26 -27 -5 -46 25 -23 24 -28 -11 -41 -35 -13 -37 -30 -10 -82 21 -42 18 -51
-16 -51 -12 0 -24 -7 -28 -15 -7 -18 -7 -18 37 0 l35 14 5 -37 c2 -20 1 -41
-3 -47 -4 -5 -10 -26 -14 -47 -6 -34 -5 -37 24 -43 16 -4 30 -11 30 -16 0 -5
5 -8 12 -6 7 1 13 -2 13 -8 4 -26 19 -45 37 -45 13 0 18 -6 16 -17 -3 -16 -52
-44 -188 -108 -19 -10 -88 -49 -153 -88 -65 -40 -132 -80 -149 -89 -17 -9 -35
-21 -40 -26 -5 -5 -10 -61 -11 -124 -2 -101 1 -117 21 -151 14 -25 20 -47 16
-62 -3 -14 1 -33 11 -49 11 -16 15 -35 11 -51 -4 -14 -2 -44 3 -67 6 -24 12
-75 14 -115 l4 -72 -27 21 c-17 12 -33 17 -41 13 -7 -5 -10 -4 -5 3 4 6 -15
18 -46 30 -158 59 -192 73 -196 76 -2 2 2 13 10 25 10 16 10 27 1 52 -10 25
-9 38 2 65 8 19 11 34 7 34 -4 0 0 5 8 11 11 8 12 12 3 16 -7 2 -13 13 -13 24
0 11 -11 24 -25 31 -24 11 -35 38 -15 38 12 0 -14 66 -34 90 -12 14 -38 160
-51 290 -3 30 -19 162 -36 293 l-30 238 42 77 c141 260 351 462 614 595 169
85 395 142 577 146 56 1 56 1 68 -35z m170 21 c250 -34 465 -121 666 -271 88
-65 222 -202 288 -294 l58 -80 -5 -143 c-4 -78 -8 -182 -11 -232 -19 -389 -19
-374 -1 -401 9 -14 14 -28 11 -31 -3 -3 -8 2 -12 11 -12 31 -21 16 -22 -41 -2
-59 -4 -86 -23 -386 -7 -121 -7 -172 1 -182 8 -9 8 -14 -1 -17 -10 -3 -15 -36
-19 -128 -1 -25 -16 8 -24 54 -4 21 -11 46 -16 55 -8 13 -79 186 -110 266 -21
56 -29 92 -24 111 3 13 -2 33 -11 48 -14 21 -15 31 -5 62 11 33 10 43 -13 93
-13 31 -29 70 -34 86 -6 21 -16 31 -33 33 -14 2 -32 10 -40 17 -8 6 -44 28
-80 47 -64 35 -83 42 -253 93 l-89 26 6 34 c4 19 2 36 -4 40 -6 3 -8 10 -5 15
3 4 -2 11 -11 14 -25 10 -13 49 21 65 25 12 27 16 14 24 -14 9 -13 13 10 34
14 13 19 22 11 21 -8 -2 -16 6 -18 20 -2 15 2 22 12 22 9 0 13 6 10 14 -3 8
-1 17 5 21 6 3 11 12 11 18 0 7 -4 6 -10 -3 -5 -8 -10 -10 -10 -4 0 6 -13 14
-30 18 -34 6 -36 18 -14 71 8 20 13 49 10 64 -2 14 -7 43 -11 64 l-6 37 183
-1 c101 0 177 -3 171 -6 -7 -2 -13 -9 -13 -15 0 -6 9 -3 20 7 11 10 20 22 20
27 0 4 -88 8 -195 8 l-195 0 0 36 c0 22 -4 33 -11 29 -6 -4 -8 -20 -4 -38 5
-24 4 -28 -4 -17 -12 17 -11 80 1 80 13 0 9 28 -7 44 -9 8 -15 19 -14 23 5 31
-6 67 -36 117 -19 32 -35 66 -35 75 -1 38 -73 108 -173 167 -28 17 -34 26 -42
62 -8 38 -9 38 145 17z m-235 -162 c13 -17 14 -17 32 0 21 18 53 23 53 7 0 -5
10 -9 23 -8 56 5 127 -81 184 -222 15 -34 42 -163 49 -233 4 -32 10 -55 13
-50 9 12 33 15 26 3 -4 -7 -8 -24 -10 -38 -7 -74 -18 -132 -26 -132 -5 0 -9
-11 -9 -25 0 -32 -39 -135 -51 -135 -12 0 -2 -44 22 -95 28 -62 33 -130 15
-223 -9 -46 -19 -89 -23 -95 -4 -6 -7 -54 -8 -107 -1 -52 -6 -104 -12 -114 -9
-17 -13 -11 -22 40 -7 32 -16 67 -21 76 -6 10 -10 30 -9 45 l1 28 7 -25 c5
-20 8 -22 13 -9 4 9 -1 27 -10 40 -11 16 -12 24 -4 27 7 2 12 10 12 18 0 22
-35 86 -59 108 -20 18 -21 18 -63 -2 -32 -15 -46 -29 -56 -56 -12 -33 -11 -38
12 -69 20 -26 26 -46 26 -83 0 -28 -5 -55 -11 -61 -9 -9 -9 -24 1 -60 7 -26
14 -57 17 -68 3 -11 -14 16 -37 60 -33 62 -41 87 -36 113 4 28 2 32 -13 27
-12 -3 -25 5 -41 27 -26 34 -120 186 -120 193 0 2 -16 30 -35 62 -46 76 -45
90 5 54 22 -16 74 -41 115 -56 l74 -27 38 30 c21 16 63 41 94 55 56 25 119 87
119 116 0 12 -3 12 -12 3 -7 -7 -19 -12 -28 -12 -8 0 -23 -9 -33 -20 -14 -17
-27 -19 -87 -17 -67 2 -70 3 -82 31 -9 23 -9 31 0 34 7 2 12 15 12 29 0 18 4
24 15 19 8 -3 25 -1 37 4 17 6 19 9 6 9 -10 1 -22 10 -28 21 -6 11 -15 18 -20
15 -6 -3 -7 0 -4 8 4 10 21 13 68 12 75 -4 105 8 63 24 -16 6 -39 11 -51 11
-13 0 -39 7 -59 15 -19 8 -36 12 -39 10 -2 -3 -2 9 0 26 3 20 12 33 28 39 23
9 34 30 16 30 -5 0 -18 8 -30 18 -15 14 -18 22 -10 30 12 12 -8 178 -25 200
-13 17 -87 55 -87 45 0 -4 -5 -2 -11 4 -6 6 -19 9 -28 5 -17 -6 -16 -4 35 60
17 21 21 38 19 95 -1 38 -7 78 -13 88 -9 17 -7 22 21 32 18 6 34 12 36 12 2 1
10 -7 16 -16z m1302 -410 c33 -48 81 -128 106 -178 48 -97 110 -262 104 -279
-2 -6 -19 16 -39 49 -56 94 -281 464 -336 551 -27 44 -54 90 -61 104 -23 47
166 -159 226 -247z m-1370 51 c-3 -3 -12 -4 -19 -1 -8 3 -5 6 6 6 11 1 17 -2
13 -5z m6 -21 c-7 -2 -19 -2 -25 0 -7 3 -2 5 12 5 14 0 19 -2 13 -5z m7 -28
c0 -8 -4 -15 -10 -15 -5 0 -10 7 -10 15 0 8 5 15 10 15 6 0 10 -7 10 -15z
m430 -15 c0 -5 -2 -10 -4 -10 -3 0 -8 5 -11 10 -3 6 -1 10 4 10 6 0 11 -4 11
-10z m34 -46 c9 -24 7 -27 -9 -10 -17 17 -19 26 -6 26 5 0 12 -7 15 -16z
m-477 -8 c-4 -10 0 -12 13 -9 17 5 18 2 11 -25 -5 -16 -14 -39 -20 -50 -17
-32 -13 -60 9 -67 11 -3 25 -16 31 -27 8 -15 8 -19 0 -14 -6 4 -11 3 -11 -3 0
-6 -7 -8 -15 -5 -8 4 -15 1 -15 -5 0 -6 -4 -11 -10 -11 -13 0 -60 41 -60 53 0
5 -11 18 -25 29 -13 10 -24 22 -23 26 1 4 -2 15 -7 26 -6 13 -3 21 8 28 9 4
14 14 11 22 -7 18 15 34 56 39 19 2 39 5 44 5 4 1 6 -4 3 -12z m-313 -52 c4
-9 4 -19 1 -22 -6 -6 -35 18 -35 29 0 16 28 10 34 -7z m-1 -86 c-4 -7 -7 -22
-6 -33 1 -16 1 -16 -3 -2 -3 9 -10 17 -17 17 -6 0 -2 7 9 15 24 18 27 18 17 3z
m-13 -75 c0 -21 -9 -15 -30 20 -28 45 -25 58 5 23 14 -16 25 -35 25 -43z
m1740 -13 c0 -11 -4 -20 -9 -20 -5 0 -7 9 -4 20 3 11 7 20 9 20 2 0 4 -9 4
-20z m-875 -20 c-3 -5 -11 -10 -16 -10 -6 0 -7 5 -4 10 3 6 11 10 16 10 6 0 7
-4 4 -10z m-545 -34 c0 -3 -4 -8 -10 -11 -5 -3 -10 -1 -10 4 0 6 5 11 10 11 6
0 10 -2 10 -4z m1335 -6 c3 -5 1 -10 -4 -10 -6 0 -11 5 -11 10 0 6 2 10 4 10
3 0 8 -4 11 -10z m67 -47 c-3 -16 -7 -22 -10 -15 -4 13 4 42 11 42 2 0 2 -12
-1 -27z m-22 -17 c0 -9 -30 -14 -35 -6 -4 6 3 10 14 10 12 0 21 -2 21 -4z m51
-15 c-7 -5 -11 -13 -7 -19 3 -6 -4 -5 -19 1 -21 10 -22 13 -7 19 9 4 24 7 32
7 12 1 13 -1 1 -8z m-31 -41 c0 -5 -5 -10 -11 -10 -5 0 -7 5 -4 10 3 6 8 10
11 10 2 0 4 -4 4 -10z m20 -52 c0 -4 -4 -10 -10 -13 -5 -3 -10 -1 -10 4 0 6
-7 11 -16 11 -8 0 -13 -4 -9 -9 3 -5 1 -12 -5 -16 -11 -7 -13 14 -4 38 4 12
10 12 30 3 13 -6 24 -14 24 -18z m-8 -69 c-21 -24 -20 -24 -15 5 3 15 10 23
18 20 11 -4 10 -10 -3 -25z m-67 -149 c3 -5 1 -10 -4 -10 -6 0 -11 5 -11 10 0
6 2 10 4 10 3 0 8 -4 11 -10z m72 -12 c-3 -8 -6 -5 -6 6 -1 11 2 17 5 13 3 -3
4 -12 1 -19z m53 2 c0 -5 7 -7 15 -4 22 9 18 -10 -7 -32 -19 -15 -20 -16 -9
-1 12 15 11 17 -3 17 -9 0 -16 7 -16 15 0 8 5 15 10 15 6 0 10 -4 10 -10z
m-80 -34 c0 -3 -7 -3 -15 0 -8 4 -15 13 -15 21 0 12 2 12 15 -1 8 -8 15 -17
15 -20z m-45 -56 c3 -5 1 -10 -4 -10 -6 0 -11 5 -11 10 0 6 2 10 4 10 3 0 8
-4 11 -10z m21 -55 c20 -19 5 -19 -20 0 -11 9 -14 15 -7 15 7 0 19 -7 27 -15z
m74 -10 c-7 -9 -15 -13 -17 -11 -7 7 7 26 19 26 6 0 6 -6 -2 -15z m-10122 -57
c17 -17 17 -319 0 -336 -17 -17 -319 -17 -336 0 -17 17 -17 319 0 336 8 8 60
12 168 12 108 0 160 -4 168 -12z m10192 8 c0 -3 -4 -8 -10 -11 -5 -3 -10 -1
-10 4 0 6 5 11 10 11 6 0 10 -2 10 -4z m-120 -36 c-24 -15 -31 -11 -18 10 9
13 16 16 23 9 7 -7 5 -13 -5 -19z m-13 -52 c2 -18 0 -20 -7 -8 -12 18 -13 30
-2 30 4 0 9 -10 9 -22z m61 -3 c-3 -3 -9 2 -12 12 -6 14 -5 15 5 6 7 -7 10
-15 7 -18z m-63 -55 c-3 -5 -11 -10 -16 -10 -6 0 -7 5 -4 10 3 6 11 10 16 10
6 0 7 -4 4 -10z m62 -15 c0 -8 -4 -15 -9 -15 -4 0 -8 7 -8 15 0 8 4 15 8 15 5
0 9 -7 9 -15z m-80 -27 c-3 -8 -6 -5 -6 6 -1 11 2 17 5 13 3 -3 4 -12 1 -19z
m90 -30 c-3 -7 -5 -2 -5 12 0 14 2 19 5 13 2 -7 2 -19 0 -25z m43 18 c0 -24
-17 -28 -23 -6 -3 13 0 20 9 20 8 0 14 -6 14 -14z m-160 -26 c0 -5 -2 -10 -4
-10 -3 0 -8 5 -11 10 -3 6 -1 10 4 10 6 0 11 -4 11 -10z m90 -50 c0 -5 -4 -10
-9 -10 -6 0 -13 5 -16 10 -3 6 1 10 9 10 9 0 16 -4 16 -10z m-103 -12 c-2 -7
2 -21 10 -30 13 -15 13 -16 -6 -11 -22 6 -31 53 -10 53 6 0 9 -6 6 -12z m73
-34 c0 -8 -6 -11 -15 -8 -8 4 -15 12 -15 20 0 8 6 11 15 8 8 -4 15 -12 15 -20z
m59 -7 c-1 -18 -2 -19 -6 -4 -3 13 -11 17 -24 14 -10 -3 -19 -1 -19 3 0 10 31
19 43 13 4 -2 6 -14 6 -26z m-19 -17 c0 -5 -2 -10 -4 -10 -3 0 -8 5 -11 10 -3
6 -1 10 4 10 6 0 11 -4 11 -10z m-70 -15 c0 -8 -4 -15 -10 -15 -5 0 -7 7 -4
15 4 8 8 15 10 15 2 0 4 -7 4 -15z m-382 -54 c3 -21 -32 -58 -177 -187 l-45
-39 30 51 c32 56 78 114 91 114 4 0 19 17 33 38 39 58 62 66 68 23z m452 25
c0 -3 -4 -8 -10 -11 -5 -3 -10 -1 -10 4 0 6 5 11 10 11 6 0 10 -2 10 -4z
m-571 -57 c-19 -12 -24 -2 -8 17 9 11 14 13 17 4 3 -7 -2 -16 -9 -21z m466 13
c-3 -3 -11 0 -18 7 -9 10 -8 11 6 5 10 -3 15 -9 12 -12z m-307 -41 c3 -19 -14
-42 -78 -106 -44 -45 -80 -87 -78 -95 2 -7 -3 -15 -10 -17 -8 -3 -10 1 -6 14
6 17 6 17 -7 0 -9 -11 -21 -16 -32 -11 -25 9 -21 20 23 66 22 23 40 45 40 50
0 12 64 78 76 78 6 0 16 12 23 26 14 31 45 29 49 -5z m279 -33 c-3 -8 -6 -5
-6 6 -1 11 2 17 5 13 3 -3 4 -12 1 -19z m68 1 c-4 -5 -13 -9 -21 -9 -12 0 -12
2 -2 14 14 15 32 11 23 -5z m-10051 -25 c23 -23 23 -305 0 -328 -13 -13 -42
-16 -164 -16 -122 0 -151 3 -164 16 -23 23 -23 305 0 328 13 13 42 16 164 16
122 0 151 -3 164 -16z m9683 -40 c14 -37 -54 -114 -102 -114 -23 0 -18 15 20
56 19 20 35 40 35 43 0 10 22 31 32 31 5 0 11 -7 15 -16z m308 6 c-3 -5 -10
-10 -16 -10 -5 0 -9 5 -9 10 0 6 7 10 16 10 8 0 12 -4 9 -10z m-1321 -306 c3
-8 2 -12 -4 -9 -6 3 -10 10 -10 16 0 14 7 11 14 -7z m-578 -161 c3 -24 2 -43
-3 -43 -4 0 -26 12 -47 26 -35 24 -37 28 -31 62 4 19 14 54 23 76 l16 40 18
-59 c9 -33 20 -79 24 -102z m-8092 -29 c23 -23 23 -305 0 -328 -13 -13 -42
-16 -164 -16 -122 0 -151 3 -164 16 -23 23 -23 305 0 328 13 13 42 16 164 16
122 0 151 -3 164 -16z m9242 -669 c26 -40 12 -55 -48 -55 -38 -1 -48 -3 -37
-10 23 -13 42 -65 35 -94 -9 -36 -61 -69 -110 -70 -39 -1 -41 1 -41 28 0 26 5
31 35 39 46 12 66 27 48 38 -7 5 -25 9 -39 9 -15 0 -37 8 -49 18 -36 29 -21
65 37 90 95 40 146 42 169 7z m-1412 -7 c20 -28 5 -48 -34 -48 -26 0 -30 -5
-49 -68 -26 -87 -48 -107 -112 -105 -56 1 -81 17 -77 47 3 18 9 21 51 19 46
-3 49 -2 63 32 7 19 14 44 14 55 0 19 -4 21 -45 14 -41 -6 -46 -4 -54 17 -17
46 6 56 141 58 79 1 88 -1 102 -21z m120 -27 c9 -10 16 -22 14 -27 -3 -12 24
-84 32 -84 3 0 16 20 28 45 12 25 28 45 36 45 7 0 20 9 27 19 22 30 55 11 64
-35 6 -34 28 -63 48 -64 15 0 6 26 -13 38 -49 30 -13 66 79 78 44 6 52 4 74
-18 l24 -24 43 18 c87 37 137 33 152 -14 3 -9 15 -4 37 15 18 15 38 27 45 27
17 0 43 -31 44 -50 0 -8 7 -31 15 -50 l16 -35 31 68 c31 69 35 71 72 39 14
-11 16 -24 12 -53 -10 -59 3 -46 16 16 6 30 15 57 20 60 4 3 18 -3 30 -13 21
-17 21 -21 11 -77 -6 -33 -19 -71 -30 -85 -24 -33 -64 -38 -83 -11 -15 21 -15
21 -26 -4 -14 -30 -37 -32 -51 -6 -10 19 -11 19 -48 0 -54 -28 -127 -26 -150
4 l-17 24 -34 -24 c-43 -28 -92 -31 -99 -5 -4 18 -6 18 -44 -1 -45 -22 -95
-28 -123 -14 -14 7 -17 16 -13 43 4 20 2 32 -4 29 -5 -4 -9 -16 -9 -29 0 -45
-54 -64 -78 -26 -7 11 -21 20 -31 20 -10 0 -21 -9 -24 -20 -6 -24 -42 -27 -55
-5 -7 14 -12 14 -45 0 -48 -20 -116 -19 -139 2 -11 10 -18 30 -18 51 0 30 9
45 58 94 63 62 79 68 106 39z m1419 -37 c4 -22 16 -45 26 -51 17 -11 21 -6 45
48 27 62 31 63 68 31 14 -11 17 -25 13 -56 -6 -48 1 -36 19 31 8 34 16 47 26
43 23 -7 78 -6 152 3 53 6 69 4 81 -8 14 -13 19 -13 45 2 29 17 31 17 50 0 11
-10 22 -30 25 -45 3 -15 11 -42 18 -60 10 -23 11 -37 3 -50 -17 -27 -75 -52
-123 -52 -80 0 -104 53 -56 124 l26 38 -33 -7 c-18 -4 -33 -8 -34 -9 0 0 -9
-21 -19 -45 -11 -24 -18 -55 -17 -69 3 -31 -15 -44 -41 -30 -16 8 -19 18 -14
56 2 26 8 55 12 65 6 13 2 17 -18 17 -21 0 -25 -6 -31 -38 -12 -78 -80 -121
-107 -70 l-12 22 -14 -27 c-16 -31 -38 -35 -51 -10 -9 16 -11 16 -27 0 -22
-22 -52 -22 -64 2 -15 27 -48 33 -54 10 -7 -27 -35 -35 -54 -16 -37 37 81 216
131 198 14 -6 23 -21 29 -47z m752 40 c28 -28 15 -49 -33 -52 -38 -3 -41 -5
-27 -18 18 -19 29 -59 21 -79 -9 -25 -69 -56 -101 -53 -25 3 -30 7 -30 28 0
19 6 26 25 28 13 2 33 10 44 17 18 13 17 14 -10 20 -51 11 -74 24 -74 42 0 30
14 42 71 62 68 24 93 25 114 5z m-2068 -436 c13 -12 23 -31 21 -42 -4 -23 -42
-53 -80 -62 l-27 -6 2 72 2 71 30 -5 c16 -4 40 -16 52 -28z m1520 15 c2 -6 -6
-13 -18 -15 -17 -2 -25 -13 -32 -38 -13 -52 -35 -71 -76 -68 -26 2 -37 8 -39
22 -4 16 0 18 27 13 33 -7 38 -2 51 44 9 30 8 30 -20 24 -29 -6 -46 6 -35 25
9 15 137 8 142 -7z m-1387 -14 c0 -7 7 -8 18 -4 25 11 171 14 178 4 3 -5 -10
-15 -28 -23 -28 -12 -30 -14 -10 -15 30 -1 28 -17 -5 -29 l-28 -10 31 -1 c26
-1 33 5 52 45 26 52 45 53 52 3 l6 -34 7 36 c6 31 11 36 37 36 24 0 32 -6 37
-25 l6 -25 19 26 c19 27 48 37 48 17 0 -17 -64 -110 -76 -110 -15 0 -24 23
-25 63 -1 31 -1 31 -16 -11 -17 -49 -40 -64 -58 -38 -10 13 -14 14 -18 3 -3
-8 -27 -14 -72 -15 l-67 -3 6 46 c7 44 6 45 -19 45 -24 0 -25 -1 -11 -16 33
-33 9 -74 -43 -74 -29 0 -26 14 4 28 32 15 32 32 0 32 -13 0 -28 8 -34 17 -7
14 -13 15 -33 6 l-23 -12 23 0 c30 -1 28 -17 -5 -29 l-28 -10 33 -1 c52 -1 34
-26 -19 -26 -47 0 -48 0 -37 80 4 27 98 50 98 24z m490 -2 c0 -4 7 -22 16 -40
l17 -32 14 43 c13 38 30 52 45 36 4 -3 0 -21 -8 -39 -18 -45 -19 -43 19 -47
47 -4 39 -22 -12 -26 -33 -2 -47 1 -53 12 -8 15 -11 15 -31 1 -27 -19 -81 -19
-96 -1 -16 18 -1 51 37 84 25 21 54 26 52 9z m167 -7 c6 -24 11 -25 35 -3 13
12 39 17 86 19 74 2 128 -16 137 -46 5 -16 10 -14 39 17 40 44 57 40 76 -17
13 -39 13 -43 -5 -56 -10 -8 -36 -14 -58 -14 -30 0 -40 4 -44 19 -5 19 -6 19
-36 1 -21 -12 -54 -18 -98 -19 -57 -1 -67 1 -72 17 -2 11 0 27 5 36 21 37 -2
26 -28 -13 -14 -23 -31 -41 -36 -41 -13 0 -28 46 -28 86 0 37 19 47 27 14z
m477 -2 c21 -30 20 -35 -11 -52 l-28 -15 33 -7 c37 -8 38 -31 1 -26 -13 1 -35
4 -49 5 -27 2 -30 6 -30 40 0 26 37 77 56 77 7 0 20 -10 28 -22z m314 10 c20
-20 14 -56 -9 -63 -32 -10 -2 -27 34 -19 24 5 28 3 25 -13 -3 -14 -11 -17 -38
-16 -19 2 -50 3 -69 4 -33 1 -33 1 -27 41 4 23 16 48 29 59 26 22 39 23 55 7z"/>
<path d="M10149 4753 l-24 -28 28 24 c15 14 27 26 27 28 0 8 -8 1 -31 -24z"/>
<path d="M10079 4693 l-24 -28 28 24 c15 14 27 26 27 28 0 8 -8 1 -31 -24z"/>
<path d="M10009 4633 l-24 -28 28 24 c15 14 27 26 27 28 0 8 -8 1 -31 -24z"/>
<path d="M9851 4364 c0 -11 3 -14 6 -6 3 7 2 16 -1 19 -3 4 -6 -2 -5 -13z"/>
<path d="M9466 5254 c-6 -15 -45 -16 -57 -2 -3 5 -14 1 -25 -7 -19 -14 -19
-14 1 -15 11 0 38 -7 60 -14 43 -15 56 -8 48 25 -7 26 -20 32 -27 13z"/>
<path d="M9390 5200 c0 -5 7 -10 16 -10 8 0 12 5 9 10 -3 6 -10 10 -16 10 -5
0 -9 -4 -9 -10z"/>
<path d="M9539 4985 c-1 -3 -2 -8 -3 -12 -1 -5 -5 -13 -9 -20 -4 -6 -3 -14 3
-18 7 -4 7 -12 0 -25 -25 -47 50 -122 82 -82 9 11 10 14 1 8 -16 -9 -17 6 -1
22 17 17 29 15 22 -3 -8 -19 6 -19 31 -1 11 8 16 19 12 30 -8 20 -39 34 -45
18 -2 -6 -10 -8 -18 -5 -7 3 -11 9 -8 14 3 5 -2 9 -12 9 -13 0 -14 3 -4 15 7
8 21 15 31 15 30 0 31 17 1 25 -38 10 -82 15 -83 10z"/>
<path d="M9525 4699 c-7 -10 21 -38 38 -39 11 0 8 25 -5 38 -15 15 -25 15 -33
1z"/>
<path d="M9698 4287 l-18 -42 20 24 c11 13 20 32 20 42 0 27 -3 24 -22 -24z"/>
<path d="M9476 3997 c3 -10 9 -15 12 -12 3 3 0 11 -7 18 -10 9 -11 8 -5 -6z"/>
<path d="M384 3825 c-4 -9 -2 -21 4 -27 15 -15 44 -1 40 19 -4 23 -36 29 -44
8z"/>
<path d="M380 3680 c0 -79 0 -80 25 -80 25 0 25 1 25 80 0 79 0 80 -25 80 -25
0 -25 -1 -25 -80z"/>
<path d="M470 3680 c0 -73 2 -80 20 -80 17 0 20 7 20 44 0 59 8 76 35 76 27 0
35 -17 35 -76 0 -37 3 -44 20 -44 18 0 20 7 20 61 0 78 -11 99 -53 99 -18 0
-38 -5 -45 -12 -9 -9 -12 -9 -12 0 0 7 -9 12 -20 12 -18 0 -20 -7 -20 -80z"/>
<path d="M415 3287 c-30 -30 -35 -41 -35 -84 0 -48 16 -84 50 -110 20 -17 30
-16 30 2 0 8 -6 15 -14 15 -7 0 -21 11 -30 25 -18 27 -7 35 14 10 14 -17 40
-20 40 -5 0 6 -6 10 -14 10 -30 0 -41 31 -33 90 3 23 7 24 77 24 73 0 74 0 82
-29 11 -42 0 -74 -28 -81 -20 -5 -22 -10 -17 -37 8 -41 7 -41 31 -26 32 20 52
64 52 113 0 36 -6 52 -28 77 -24 27 -37 33 -85 37 -54 4 -58 3 -92 -31z"/>
<path d="M400 2770 c-17 -17 -20 -33 -20 -100 0 -67 3 -83 20 -100 17 -17 33
-20 100 -20 109 0 120 11 120 120 0 109 -11 120 -120 120 -67 0 -83 -3 -100
-20z m194 -22 c10 -14 16 -44 16 -78 0 -87 -14 -100 -110 -100 -96 0 -110 13
-110 100 0 87 14 100 110 100 70 0 81 -2 94 -22z"/>
<path d="M560 2734 c0 -8 5 -12 10 -9 6 3 10 10 10 16 0 5 -4 9 -10 9 -5 0
-10 -7 -10 -16z"/>
<path d="M457 2712 c-22 -24 -21 -65 1 -85 40 -36 102 -9 102 45 0 51 -69 78
-103 40z m78 -42 c0 -32 -3 -35 -33 -38 -26 -3 -34 1 -41 20 -14 36 4 60 42
56 29 -3 32 -6 32 -38z"/>
<path d="M9144 2064 c9 -8 16 -20 16 -25 0 -16 14 -9 33 16 l18 25 -41 0 c-38
0 -40 -1 -26 -16z"/>
<path d="M9004 2059 c-3 -6 1 -18 10 -28 9 -10 16 -23 16 -29 0 -15 32 -15 65
0 29 13 17 28 -22 28 -13 0 -32 9 -43 20 -12 12 -22 15 -26 9z"/>
<path d="M8535 2030 c-33 -34 -29 -45 14 -35 36 8 45 18 36 45 -9 27 -16 25
-50 -10z"/>
<path d="M9255 2030 c-33 -34 -29 -45 14 -35 36 8 45 18 36 45 -9 27 -16 25
-50 -10z"/>
<path d="M8925 2000 c-8 -13 5 -13 25 0 13 8 13 10 -2 10 -9 0 -20 -4 -23 -10z"/>
<path d="M10485 2028 c-31 -37 -22 -45 30 -28 39 13 39 13 25 41 -15 26 -24
24 -55 -13z"/>
<path d="M8670 1665 c0 -27 6 -30 29 -16 12 8 12 12 2 25 -19 23 -31 20 -31
-9z"/>
<path d="M9292 1648 c-19 -19 -14 -30 10 -26 13 2 24 11 26 21 4 20 -18 23
-36 5z"/>
<path d="M9655 1682 c-30 -6 -43 -22 -17 -22 33 0 26 -18 -10 -29 l-33 -9 38
-1 c39 -1 51 11 45 46 -2 12 -10 17 -23 15z"/>
<path d="M9710 1651 c0 -14 5 -19 15 -14 17 6 15 25 -3 31 -7 2 -12 -5 -12
-17z"/>
<path d="M9819 1649 l-24 -24 24 -3 c31 -5 46 11 33 33 -9 16 -11 16 -33 -6z"/>
</g>
</svg>
